<?xml version="1.0" encoding="utf-8"?>
<!-- Generator: Adobe Illustrator 14.0.0, SVG Export Plug-In . SVG Version: 6.00 Build 43363)  -->
<!DOCTYPE svg PUBLIC "-//W3C//DTD SVG 1.1//EN" "http://www.w3.org/Graphics/SVG/1.1/DTD/svg11.dtd">
<svg version="1.1" id="Layer_1" xmlns="http://www.w3.org/2000/svg" xmlns:xlink="http://www.w3.org/1999/xlink" x="0px" y="0px"
	 width="71.881px" height="33.434px" viewBox="0 0 71.881 33.434" enable-background="new 0 0 71.881 33.434" xml:space="preserve">
<g>
	<g>
		<path fill="#E31937" d="M17.862,6.448c-6.543,0-10.555,5.11-10.555,10.268c0,6.21,5.063,10.269,10.603,10.269
			c3.678,0,7.164-1.623,10.125-4.25v7.689c-3.104,1.862-7.355,3.01-10.65,3.01C7.928,33.432,0,25.742,0,16.716
			C0,7.164,7.976,0,17.432,0c3.63,0,7.881,1.098,10.651,2.483v7.547C24.597,7.737,21.063,6.448,17.862,6.448L17.862,6.448z
			 M48.143,33.432c-9.505,0-17.529-7.402-17.529-16.716C30.614,7.307,38.591,0,48.574,0c3.631,0,8.12,0.955,10.891,2.245v7.497
			c-3.154-1.815-7.213-3.295-10.749-3.295c-6.543,0-10.793,5.11-10.793,10.268c0,6.066,5.015,10.46,10.89,10.46
			c1.241,0,2.435-0.096,3.964-0.669v-6.018h-5.35v-6.353h12.227v16.908C56.168,32.62,52.251,33.432,48.143,33.432L48.143,33.432z
			 M65.004,32.764V0.668h6.877v32.096H65.004z"/>
	</g>
</g>
</svg>
