<svg id="Icons" height="512" viewBox="0 0 74 74" width="512" xmlns="http://www.w3.org/2000/svg"><path d="m37 43.144a1 1 0 0 1 -1-1v-12.219a1 1 0 1 1 2 0v12.219a1 1 0 0 1 -1 1z"/><path d="m65.11 62.061a1 1 0 0 1 -.335-1.943l5.225-1.854v-38.842l-9.948 4.378a1 1 0 1 1 -.8-1.831l11.348-4.994a1 1 0 0 1 1.4.915v41.08a1 1 0 0 1 -.666.943l-5.89 2.087a.981.981 0 0 1 -.334.061z"/><path d="m37 72.01a1 1 0 0 1 -1-1v-12.82a1 1 0 0 1 2 0v11.4l9.866-3.5a1 1 0 1 1 .668 1.884l-11.2 3.97a.987.987 0 0 1 -.334.066z"/><path d="m55.2 65.57a1 1 0 0 1 -.336-1.942l2.909-1.04a1 1 0 1 1 .673 1.883l-2.909 1.041a1.017 1.017 0 0 1 -.337.058z"/><path d="m37 43.144a1 1 0 0 1 -1-1v-12.219a1 1 0 1 1 2 0v12.219a1 1 0 0 1 -1 1z"/><path d="m37 72.012a1.015 1.015 0 0 1 -.334-.057l-34-12.038a1 1 0 0 1 -.666-.943v-41.087a1 1 0 0 1 1.4-.915l11.35 4.994a1 1 0 1 1 -.8 1.83l-9.95-4.377v38.848l32 11.333v-11.412a1 1 0 0 1 2 0v12.824a1 1 0 0 1 -1 1z"/><path d="m71 18.887a1 1 0 0 1 -.354-.065l-33.646-12.764-33.646 12.764a1 1 0 1 1 -.708-1.87l34-12.9a.993.993 0 0 1 .708 0l34 12.9a1 1 0 0 1 -.354 1.935z"/><path d="m14.343 51.4a1 1 0 0 1 -1-1v-27.514a1 1 0 0 1 .657-.94l22.657-8.26a1 1 0 0 1 1.343.939v27.516a1 1 0 0 1 -.657.939l-22.657 8.261a1.016 1.016 0 0 1 -.343.059zm1-27.816v25.388l20.657-7.531v-25.387z"/><path d="m59.657 51.4a1.016 1.016 0 0 1 -.343-.06l-22.657-8.26a1 1 0 0 1 -.657-.939v-27.516a1 1 0 0 1 1.343-.939l22.657 8.26a1 1 0 0 1 .657.94v27.514a1 1 0 0 1 -1 1zm-21.657-9.959 20.657 7.531v-25.387l-20.657-7.531z"/><path d="m37 59.188a1 1 0 0 1 -.325-.055l-22.657-7.786a1 1 0 1 1 .65-1.891l22.332 7.674 22.332-7.674a1 1 0 1 1 .65 1.891l-22.657 7.786a1 1 0 0 1 -.325.055z"/></svg>