<svg width="12" height="12" viewBox="0 0 12 12" fill="none" xmlns="http://www.w3.org/2000/svg">
<path d="M9.47225 0L3.75085 0.0951302C3.11212 0.10872 2.60929 0.625142 2.60929 1.26387C2.60929 1.57644 2.74519 1.86183 2.96263 2.07928C3.18007 2.29672 3.47905 2.40544 3.77803 2.40544L8.01812 2.33749L0.339751 10.0159C0.12231 10.2333 0 10.5187 0 10.8313C0 11.1438 0.12231 11.4292 0.339751 11.6467C0.570781 11.8777 0.856172 11.9864 1.15515 11.9864C1.45413 11.9864 1.75311 11.8777 1.97055 11.6467L9.66251 3.9547L9.59456 8.22197C9.59456 8.53454 9.70328 8.81993 9.92072 9.03737C10.1382 9.25481 10.4236 9.37712 10.7361 9.39071C11.0487 9.39071 11.3477 9.28199 11.5651 9.05096C11.7826 8.83352 11.9049 8.54813 11.9049 8.24915L11.9864 2.50057C12 1.12797 10.872 0 9.47225 0Z" fill="white"/>
</svg>
