<svg version="1.1" id="Art" xmlns="http://www.w3.org/2000/svg" xmlns:xlink="http://www.w3.org/1999/xlink" x="0px" y="0px"
	 viewBox="0 0 1610.5 452" style="enable-background:new 0 0 1610.5 452;" xml:space="preserve">
<style type="text/css">
	.st0{fill:url(#SVGID_1_);}
	.st1{fill:url(#SVGID_2_);}
	.st2{fill:#D31F3E;}
	.st3{fill:#FFFFFF;}
	.st4{fill:url(#SVGID_3_);}
	.st5{fill:url(#SVGID_4_);}
	.st6{fill:url(#SVGID_5_);}
	.st7{fill:url(#SVGID_6_);}
	.st8{fill:url(#SVGID_7_);}
	.st9{fill:url(#SVGID_8_);}
	.st10{fill:url(#SVGID_9_);}
	.st11{fill:url(#SVGID_10_);}
	.st12{fill:url(#SVGID_11_);}
	.st13{fill:url(#SVGID_12_);}
	.st14{fill:url(#SVGID_13_);}
	.st15{fill:url(#SVGID_14_);}
	.st16{fill:url(#SVGID_15_);}
	.st17{fill:url(#SVGID_16_);}
	.st18{fill:url(#SVGID_17_);}
	.st19{fill:url(#SVGID_18_);}
	.st20{fill:url(#SVGID_19_);}
	.st21{fill:url(#SVGID_20_);}
	.st22{fill:url(#SVGID_21_);}
	.st23{fill:url(#SVGID_22_);}
	.st24{fill:url(#SVGID_23_);}
	.st25{fill:url(#SVGID_24_);}
</style>
<g>
	<path class="st2" d="M692.5,169c8.2,3.7,14.4,8.9,18.9,15.7c4.4,6.8,6.6,14.8,6.6,24.1c0,9.2-2.2,17.2-6.6,24
		c-4.4,6.9-10.7,12.1-18.9,15.7c-8.2,3.6-17.8,5.5-28.9,5.5h-25.1c0,0-0.1,0-0.1,0.1v13.2c0,11.8-9.5,21.3-21.3,21.3h-7.7V180.5
		c0-9.4,7.6-17,17-17h37.1C674.7,163.5,684.3,165.3,692.5,169z M681.9,224.8c4.5-3.8,6.8-9.1,6.8-16c0-7-2.3-12.4-6.8-16.2
		c-4.5-3.8-11.1-5.6-19.8-5.6h-23.5c0,0-0.1,0-0.1,0.1v43.3c0,0,0,0.1,0.1,0.1H662C670.7,230.5,677.3,228.6,681.9,224.8z
		 M837.6,191.9l-33.7,80.9c-3.9,9.5-13.3,15.8-23.6,15.8h-12.6l49.9-112c3.5-7.9,11.4-13.1,20.1-13.1h0c8.7,0,16.6,5.1,20.1,13
		l50.1,112.1h-13.3c-10.3,0-19.6-6.2-23.6-15.8L837.6,191.9z M1049.6,279.4l-17.8-25.7h-1.4h-25.2v17.9c0,9.4-7.6,17-17,17h-12
		V176.2c0-7,5.7-12.7,12.7-12.7h41.4c11.1,0,20.7,1.8,28.9,5.5c8.2,3.7,14.4,8.9,18.9,15.7c4.4,6.8,6.6,14.8,6.6,24.1
		s-2.2,17.3-6.7,24c-4.5,6.7-10.8,11.9-19,15.5l28.1,40.2h-19.9C1060.1,288.5,1053.6,285.1,1049.6,279.4z M1048.6,192.7
		c-4.5-3.8-11.1-5.6-19.8-5.6h-23.6v43.6h23.6c8.7,0,15.3-1.9,19.8-5.7c4.5-3.8,6.8-9.2,6.8-16.1
		C1055.4,201.8,1053.1,196.4,1048.6,192.7z M1162.1,163.5h7.7c11.7,0,21.3,9.5,21.3,21.3V265h45.7c9.4,0,17,7.6,17,17v6.6h-91.7
		V163.5z M1420.2,282.3v6.2h-96.9V180.5c0-9.4,7.6-17,17-17h77.5v6.2c0,9.4-7.6,17-17,17h-48.8v27.2h58.1v5.5c0,9.4-7.6,17-17,17
		h-41.1v29h51.1C1412.6,265.3,1420.2,272.9,1420.2,282.3z M1572,279.4l-17.8-25.7c0,0,0,0,0,0h-1.4h-25.2c0,0,0,0,0,0v13.6
		c0,11.8-9.5,21.3-21.3,21.3h-7.7c0,0,0,0,0,0V180.5c0-9.4,7.6-17,17-17h37.1c11.1,0,20.7,1.8,28.9,5.5c8.2,3.7,14.4,8.9,18.9,15.7
		c4.4,6.8,6.6,14.8,6.6,24.1s-2.2,17.3-6.7,24c-4.5,6.7-10.8,11.9-19,15.5c0,0,0,0,0,0l28,40.2c0,0,0,0,0,0h-19.9
		C1582.6,288.5,1576,285.1,1572,279.4z M1571.1,192.7c-4.5-3.8-11.1-5.6-19.8-5.6h-23.6c0,0,0,0,0,0v43.6c0,0,0,0,0,0h23.6
		c8.7,0,15.3-1.9,19.8-5.7c4.5-3.8,6.8-9.2,6.8-16.1C1577.9,201.8,1575.6,196.4,1571.1,192.7z"/>
	<path class="st2" d="M179.6,362c-1.9,10.7-4,21.8-6.5,33.2C172.7,395,6.2,147.7,5.7,147.4c-10.5-15.5-9.5-47,67.3-36.6
		C194.1,125.5,198.5,263.3,179.6,362z M322.4,362c1.9,10.7,4,21.8,6.5,33.2c0.5-0.1,166.9-247.4,167.4-247.8
		c10.5-15.5,9.5-47-67.3-36.6C307.9,125.5,303.5,263.3,322.4,362z M359.6,37.9C291.2-21.2,158.5-9.2,113.1,72.8
		c83.6,25.7,118.7,115.8,117.5,199c0.6,45.3-5.9,97.7-19.5,157c-2.6,11.4,6.1,22.2,17.8,22.2h44.3c11.7,0,20.4-10.8,17.8-22.2
		c-13.6-59.3-20.1-111.6-19.5-157c-1.2-83.1,33.9-173.3,117.5-199C381.9,60.1,372,48.3,359.6,37.9z"/>
</g>
</svg>