<?xml version="1.0" encoding="iso-8859-1"?>
<!-- Generator: Adobe Illustrator 19.0.0, SVG Export Plug-In . SVG Version: 6.00 Build 0)  -->
<svg version="1.1" id="Capa_1" xmlns="http://www.w3.org/2000/svg" xmlns:xlink="http://www.w3.org/1999/xlink" x="0px" y="0px"
	 viewBox="0 0 372.64 372.64" style="enable-background:new 0 0 372.64 372.64;" xml:space="preserve">
<g>
	<g>
		<path d="M120.16,102.4c-4.961,25.01-7.612,50.424-7.92,75.92h66.08v-72C158.876,106.091,139.459,104.783,120.16,102.4z"/>
	</g>
</g>
<g>
	<g>
		<path d="M48.64,86.88c-5.333-1.76-10.667-3.627-16-5.6c-19.599,28.69-30.718,62.322-32.08,97.04h95.6
			c0.282-26.295,2.96-52.511,8-78.32C85.35,97.028,66.791,92.642,48.64,86.88z"/>
	</g>
</g>
<g>
	<g>
		<path d="M43.2,68.24c5.28,1.92,10.88,3.76,16.64,5.44c15.757,4.547,31.79,8.074,48,10.56c4.939-20.203,12.496-39.675,22.48-57.92
			c4.118-7.451,8.968-14.472,14.48-20.96C104.946,14.593,69.242,36.69,43.2,68.24z"/>
	</g>
</g>
<g>
	<g>
		<path d="M276.48,194.32c-0.283,26.295-2.96,52.51-8,78.32c18.81,2.97,37.37,7.356,55.52,13.12c5.333,1.76,10.667,3.627,16,5.6
			c19.599-28.69,30.718-62.321,32.08-97.04H276.48z"/>
	</g>
</g>
<g>
	<g>
		<path d="M112.24,194.32c0.303,25.523,2.954,50.963,7.92,76c19.298-2.409,38.714-3.745,58.16-4v-72H112.24z"/>
	</g>
</g>
<g>
	<g>
		<path d="M96.32,194.32h-96c1.457,34.75,12.687,68.385,32.4,97.04c5.333-1.973,10.667-3.84,16-5.6
			c18.177-5.766,36.763-10.151,55.6-13.12C99.28,246.831,96.602,220.615,96.32,194.32z"/>
	</g>
</g>
<g>
	<g>
		<path d="M130.32,346.32c-9.984-18.245-17.541-37.717-22.48-57.92c-16.216,2.563-32.249,6.17-48,10.8
			c-5.76,1.68-11.28,3.52-16.64,5.44c26.042,31.55,61.746,53.647,101.6,62.88C139.272,360.958,134.421,353.856,130.32,346.32z"/>
	</g>
</g>
<g>
	<g>
		<path d="M124.08,286c5.257,24.027,15.148,46.799,29.12,67.04c6.014,8.512,14.344,15.12,24,19.04l1.44,0.56v-90.32
			C160.4,282.564,142.187,283.792,124.08,286z"/>
	</g>
</g>
<g>
	<g>
		<path d="M312.8,298.96c-15.756-4.549-31.789-8.076-48-10.56c-4.938,20.204-12.496,39.675-22.48,57.92
			c-4.115,7.452-8.966,14.474-14.48,20.96c39.854-9.233,75.558-31.33,101.6-62.88C324.16,302.48,318.56,300.64,312.8,298.96z"/>
	</g>
</g>
<g>
	<g>
		<path d="M194.32,282.32v90.32l1.44-0.56c9.656-3.92,17.986-10.528,24-19.04c14.076-20.193,24.076-42.937,29.44-66.96
			C230.988,283.832,212.668,282.577,194.32,282.32z"/>
	</g>
</g>
<g>
	<g>
		<path d="M194.32,194.32v72c19.444,0.227,38.861,1.536,58.16,3.92c4.961-25.01,7.612-50.424,7.92-75.92H194.32z"/>
	</g>
</g>
<g>
	<g>
		<path d="M252.48,102.32c-19.297,2.411-38.714,3.747-58.16,4v72h66.08C260.097,152.797,257.446,127.357,252.48,102.32z"/>
	</g>
</g>
<g>
	<g>
		<path d="M219.44,19.6c-6.014-8.512-14.344-15.12-24-19.04L194.32,0v90.32c18.24-0.244,36.453-1.472,54.56-3.68
			C243.526,62.59,233.525,39.817,219.44,19.6z"/>
	</g>
</g>
<g>
	<g>
		<path d="M227.84,5.12c5.525,6.564,10.376,13.666,14.48,21.2c9.984,18.245,17.542,37.716,22.48,57.92
			c16.215-2.567,32.248-6.174,48-10.8c5.76-1.68,11.28-3.52,16.64-5.44C303.398,36.45,267.694,14.353,227.84,5.12z"/>
	</g>
</g>
<g>
	<g>
		<path d="M339.92,81.28c-5.333,1.973-10.667,3.84-16,5.6c-18.176,5.768-36.763,10.154-55.6,13.12c5.04,25.81,7.717,52.025,8,78.32
			h96C370.863,143.57,359.633,109.935,339.92,81.28z"/>
	</g>
</g>
<g>
	<g>
		<path d="M176.88,0.56c-9.539,3.973-17.752,10.576-23.68,19.04c-14.076,20.193-24.076,42.938-29.44,66.96
			c18.106,2.236,36.319,3.491,54.56,3.76V0L176.88,0.56z"/>
	</g>
</g>
<g>
</g>
<g>
</g>
<g>
</g>
<g>
</g>
<g>
</g>
<g>
</g>
<g>
</g>
<g>
</g>
<g>
</g>
<g>
</g>
<g>
</g>
<g>
</g>
<g>
</g>
<g>
</g>
<g>
</g>
</svg>
